<svg viewBox="0 0 24 24" data-title="BarrowCriteria" fill="currentColor" stroke="none">
  <path fill-rule="evenodd" clip-rule="evenodd" d="M20.6136 7C20.827 7 21 7.17589 21 7.39286C21 7.58572 20.8633 7.74612 20.6831 7.77938L20.6136 7.78571L19.3549 7.78564L17.1357 15.3074L17.136 17.6233L17.1349 17.6378V17.6229L17.1324 17.6636L17.1341 17.6433C17.1327 17.6629 17.1306 17.6765 17.1278 17.6898C17.1252 17.7018 17.1221 17.7139 17.1184 17.7258L17.1072 17.7572C17.1029 17.7679 17.0979 17.7786 17.0925 17.7892C17.0875 17.7989 17.0823 17.808 17.0767 17.8169C17.071 17.8262 17.0647 17.8355 17.0579 17.8445C17.0499 17.8552 17.0414 17.8655 17.0324 17.8753L17.0137 17.8943L16.9989 17.9076L16.9904 17.9144L17.0232 17.8849L16.9865 17.9167L16.9562 17.9395C16.9476 17.945 16.9386 17.9503 16.9294 17.9552C16.9187 17.9609 16.9081 17.9659 16.8973 17.9704C16.8876 17.9745 16.8773 17.9783 16.8668 17.9817C16.855 17.9855 16.8431 17.9887 16.8311 17.9913C16.8229 17.9931 16.8143 17.9947 16.8057 17.9959C16.7924 17.9979 16.7792 17.9991 16.7659 17.9997L16.75 18L16.6967 17.9953H16.6952L16.6687 17.9913C16.6569 17.9887 16.645 17.9855 16.6333 17.9817L16.6024 17.9703C16.5919 17.9659 16.5813 17.9609 16.5709 17.9554C16.5614 17.9503 16.5524 17.945 16.5437 17.9394C16.5393 17.9366 16.5348 17.9335 16.5303 17.9304L16.5165 17.9202C16.506 17.9121 16.4959 17.9034 16.4863 17.8943L14.2719 15.6429H9.79545L9.74066 15.6381L9.74761 15.6397L9.74242 15.6392L9.73988 15.6381H9.73911L9.73447 15.6374L9.69159 15.6285C9.68237 15.6258 9.67289 15.6228 9.66353 15.6193C9.65505 15.6162 9.64664 15.6128 9.63838 15.609C9.62657 15.6037 9.61484 15.5977 9.60339 15.591C9.59556 15.5864 9.58789 15.5815 9.58041 15.5764C9.57081 15.57 9.56128 15.5628 9.55204 15.5552C9.53033 15.5368 9.5134 15.5196 9.49814 15.5009L8.34659 14.1351L7.54394 14.953C7.74599 15.2634 7.86364 15.6356 7.86364 16.0357C7.86364 17.1206 6.99873 18 5.93182 18C4.8649 18 4 17.1206 4 16.0357C4 14.9509 4.8649 14.0714 5.93182 14.0714C6.32532 14.0714 6.69134 14.1911 6.99662 14.3965L7.84277 13.5364L4.86575 10.0057C4.83525 9.96893 4.81253 9.92976 4.7969 9.88708C4.76488 9.79848 4.76507 9.70295 4.7956 9.61666C4.79872 9.60774 4.8022 9.59893 4.80599 9.59029C4.81126 9.57826 4.8172 9.5663 4.82378 9.55464C4.86839 9.47567 4.93925 9.41391 5.02428 9.38172C5.06779 9.36547 5.11182 9.35752 5.15579 9.35716L18.0853 9.35707L18.6981 7.27997L18.7013 7.26945L18.7076 7.25149L18.7121 7.24042L18.7147 7.23394L18.7128 7.23886L18.7297 7.20333C18.7356 7.1924 18.7422 7.18153 18.7493 7.17102C18.7542 7.16358 18.7592 7.1566 18.7645 7.14982C18.7727 7.1393 18.7817 7.12892 18.7911 7.11904C18.7977 7.11206 18.8043 7.10563 18.8112 7.09946C18.8202 7.09128 18.8299 7.0833 18.84 7.0758C18.8478 7.07003 18.8558 7.06449 18.8641 7.05928C18.8747 7.05253 18.8854 7.04644 18.8964 7.04086C18.9048 7.03672 18.9134 7.03276 18.9222 7.02912C18.9336 7.02426 18.9454 7.02003 18.9574 7.01638C18.9673 7.01344 18.9772 7.01085 18.9872 7.00866C18.9908 7.00786 18.9948 7.00706 18.9987 7.00633L19.0196 7.00302C19.0317 7.00146 19.0438 7.00047 19.0561 7.00008L20.6136 7ZM5.93182 14.8571C5.29167 14.8571 4.77273 15.3848 4.77273 16.0357C4.77273 16.6866 5.29167 17.2143 5.93182 17.2143C6.57197 17.2143 7.09091 16.6866 7.09091 16.0357C7.09091 15.8541 7.0505 15.682 6.97832 15.5284L6.20502 16.3135C6.05413 16.4669 5.8095 16.4669 5.65862 16.3135C5.5245 16.1771 5.5096 15.9654 5.61391 15.8123L5.65862 15.7579L6.43078 14.9716C6.27966 14.8982 6.11046 14.8571 5.93182 14.8571ZM16.3629 15.6429H15.3646L16.3636 16.6588L16.3629 15.6429ZM17.8535 10.1428H5.99905L9.97318 14.8571H16.4625L17.8535 10.1428Z"/>
</svg>
