<svg viewBox="0 0 24 24" data-title="FlowerCriteria" fill="currentColor" stroke="none">
  <path fill-rule="evenodd" clip-rule="evenodd" d="M14.0708 4.08852C14.5639 4.2841 14.8858 4.76953 14.879 5.30696C14.8733 5.44313 14.9253 5.57526 15.022 5.66985C15.1168 5.76391 15.2474 5.81106 15.3794 5.79888C15.9155 5.75487 16.4203 6.06058 16.6369 6.56053C16.8535 7.06048 16.7345 7.6449 16.3403 8.01655C16.242 8.10721 16.187 8.23654 16.1894 8.37138C16.1949 8.50782 16.2552 8.63602 16.3562 8.7262C16.7562 9.0842 16.8935 9.6577 16.7001 10.1622C16.5205 10.6307 16.0912 10.9473 15.6039 10.9814L15.4905 10.9842C15.3561 10.9762 15.2251 11.0294 15.1332 11.1294C15.0376 11.2237 14.9906 11.3578 15.0061 11.4922C15.0451 12.0362 14.743 12.5463 14.2516 12.7664C13.8399 12.952 13.3688 12.8972 13.0124 12.6383C13.2786 13.6392 13.3911 14.6782 13.3463 15.7179C13.4065 16.9484 13.2435 18.1789 12.8662 19.3482C14.2152 19.3795 15.547 19.6801 16.785 20.2339C16.9774 20.3406 17.054 20.5814 16.9598 20.7823C16.8894 20.9163 16.752 21 16.6024 21C16.5555 20.9942 16.5099 20.9806 16.4674 20.9597C15.1979 20.3912 13.82 20.1157 12.433 20.1533C11.1715 20.127 9.91639 20.3403 8.73214 20.7823C8.59876 20.8541 8.43679 20.8429 8.3142 20.7534C8.19162 20.6639 8.12964 20.5115 8.15428 20.3603C8.17892 20.209 8.28592 20.085 8.43036 20.0404C9.58409 19.6004 10.803 19.366 12.0334 19.3463C12.0384 19.3191 12.0476 19.2921 12.0597 19.2662C12.4438 18.1258 12.6109 16.9217 12.5521 15.7179C12.6043 14.6145 12.4682 13.511 12.1507 12.4559L12.1233 12.4841C11.8863 12.764 11.5416 12.9258 11.1782 12.9277C11.0182 12.9249 10.8598 12.895 10.7096 12.839C10.2125 12.6377 9.89424 12.1401 9.91546 11.5971C9.92052 11.4629 9.86857 11.3331 9.77284 11.2405C9.67711 11.1479 9.54683 11.1016 9.41513 11.1132C8.88002 11.1504 8.37896 10.8445 8.16034 10.3471C7.94262 9.84923 8.06071 9.26587 8.45418 8.89555C8.54975 8.7996 8.604 8.66913 8.60507 8.53266C8.60021 8.39834 8.53963 8.27238 8.4383 8.1859C8.03101 7.82937 7.89077 7.25003 8.08886 6.7424C8.29483 6.23938 8.78347 5.91606 9.31983 5.92791C9.45447 5.93708 9.58594 5.88369 9.67721 5.78275C9.76892 5.68593 9.8152 5.55374 9.80427 5.41986C9.76574 4.88355 10.0608 4.3798 10.5434 4.15824C11.0259 3.93667 11.5933 4.04437 11.9644 4.42796C12.0637 4.51757 12.1893 4.57143 12.3218 4.58118C12.4516 4.58035 12.5753 4.52486 12.6633 4.42796C13.0171 4.02817 13.5778 3.89293 14.0708 4.08852ZM13.2589 4.9602C13.0238 5.23337 12.6869 5.3942 12.3297 5.40373C11.9706 5.41032 11.625 5.26413 11.3767 5.00052C11.2438 4.8469 11.027 4.80089 10.8446 4.88762C10.6609 4.96465 10.5481 5.15438 10.5667 5.35535C10.5912 5.71853 10.4644 6.07549 10.2172 6.33918C9.96702 6.59901 9.62204 6.74205 9.26424 6.73433C9.06577 6.73268 8.88639 6.85411 8.81156 7.04078C8.73834 7.22916 8.79283 7.44399 8.94657 7.57302C9.21396 7.81479 9.36691 8.16104 9.36691 8.5246C9.36691 8.88816 9.21396 9.23441 8.94657 9.47618C8.8004 9.61449 8.7587 9.83271 8.84333 10.0165C8.9181 10.2125 9.1143 10.3321 9.31983 10.3068L9.43895 10.2987C9.78015 10.3008 10.1062 10.4421 10.3437 10.6909C10.5812 10.9396 10.7102 11.2749 10.7017 11.6213C10.6944 11.8264 10.8154 12.0139 11.0035 12.089C11.189 12.1634 11.4006 12.108 11.5276 11.9519C11.7719 11.6683 12.1255 11.5065 12.4965 11.5084C12.8534 11.5135 13.1946 11.6579 13.4495 11.9116C13.5824 12.0652 13.7993 12.1112 13.9816 12.0245C14.1666 11.9445 14.2791 11.7519 14.2596 11.5487C14.2346 11.1864 14.3621 10.8304 14.6104 10.569C14.8312 10.3367 15.1289 10.1985 15.4434 10.1793L15.562 10.1778C15.7568 10.1676 15.9305 10.05 16.0147 9.87133C16.0879 9.68294 16.0334 9.46811 15.8797 9.33909C15.6107 9.10036 15.4523 8.75823 15.4429 8.39557C15.4364 8.03085 15.5804 7.67999 15.84 7.42786C15.9736 7.28786 16.0096 7.07928 15.9308 6.9015C15.852 6.72373 15.6744 6.61274 15.4826 6.62143C15.128 6.64112 14.7809 6.51295 14.5216 6.26661C14.2379 6.02195 14.0775 5.66069 14.0849 5.28277C14.0911 5.07986 13.9699 4.89526 13.7831 4.8231C13.5975 4.74875 13.386 4.80409 13.2589 4.9602ZM13.4078 5.98081C14.3928 6.39775 15.0331 7.37648 15.0299 8.46008C15.0255 9.93558 13.8464 11.1294 12.3933 11.1294C11.3261 11.1294 10.3642 10.4762 9.95657 9.47472C9.54894 8.47328 9.77598 7.32108 10.5317 6.55601C11.2874 5.79093 12.4228 5.56387 13.4078 5.98081ZM12.3933 6.58918C11.3757 6.58918 10.5508 7.42681 10.5508 8.46008C10.5508 9.49336 11.3757 10.331 12.3933 10.331C13.4108 10.331 14.2357 9.49336 14.2357 8.46008C14.2357 7.96389 14.0416 7.48802 13.6961 7.13715C13.3506 6.78629 12.8819 6.58918 12.3933 6.58918Z"/>
</svg>
