<svg viewBox="0 0 24 24" data-title="LayerOutline" fill="currentColor" stroke="none">
  <path d="M20.582 13.8247C21.0835 13.5939 21.6772 13.8134 21.9082 14.3149C22.1389 14.8165 21.9194 15.4101 21.4179 15.6411L12.9726 19.5317L12.9687 19.5337C12.6584 19.6752 12.321 19.7485 11.9795 19.7485C11.638 19.7485 11.3004 19.6751 10.9902 19.5337L10.9843 19.5308L2.58005 15.6401C2.07889 15.4081 1.86079 14.8142 2.09274 14.313C2.32475 13.8118 2.91872 13.5937 3.41989 13.8257L11.8193 17.7134C11.8697 17.7363 11.9246 17.7485 11.9795 17.7485C12.0342 17.7485 12.0884 17.7363 12.1386 17.7134L20.582 13.8247Z"/>
  <path fill-rule="evenodd" clip-rule="evenodd" d="M12 4.25146C12.2704 4.25151 12.5391 4.29312 12.7959 4.37451L13.0488 4.46924L13.0703 4.479L20.9629 8.13428L20.9931 8.14893C21.2861 8.29667 21.5318 8.52367 21.7041 8.80322C21.8768 9.08357 21.9686 9.40585 21.9687 9.73389C21.9687 10.0621 21.8779 10.385 21.705 10.6655L21.7041 10.6646C21.5318 10.9444 21.2863 11.172 20.9931 11.3198C20.9844 11.3242 20.9747 11.3284 20.9658 11.3325L13.0732 15.0161C13.0653 15.0198 13.0568 15.0234 13.0488 15.0269C12.718 15.1705 12.3606 15.2446 12 15.2446C11.6392 15.2446 11.2811 15.1706 10.9502 15.0269C10.9431 15.0238 10.9357 15.0203 10.9287 15.0171L3.0361 11.3618C3.02614 11.3572 3.01564 11.3521 3.00583 11.3472C2.71268 11.1992 2.46609 10.9725 2.29392 10.6929C2.14329 10.4481 2.05401 10.1707 2.03415 9.88525L2.03024 9.76221L2.03415 9.63916C2.05396 9.35359 2.14327 9.07636 2.29392 8.83154L2.36228 8.729C2.52875 8.49641 2.74944 8.30671 3.00583 8.17725L3.03317 8.16357L10.9258 4.48096C10.9337 4.47724 10.9421 4.47277 10.9502 4.46924C11.2811 4.32553 11.6392 4.25152 12 4.25146ZM12 6.25146C11.9132 6.25152 11.8266 6.26966 11.747 6.3042L11.7461 6.30322L4.33884 9.76123L11.7509 13.1938C11.8294 13.2273 11.9146 13.2446 12 13.2446C12.0849 13.2446 12.1689 13.227 12.247 13.1938L19.6582 9.73486L12.2519 6.3042L12.1289 6.26514C12.0867 6.25636 12.0433 6.2515 12 6.25146Z"/>
</svg>
