<svg viewBox="0 0 24 24" data-title="LockOutline" fill="currentColor" stroke="none">
  <path d="M17.5928 22H6.40715C5.07733 22 4 20.9333 4 19.6167V11.3083C4 10.1 4.91741 9.09167 6.09574 8.94167V7.84167C6.09574 6.28333 6.71015 4.80833 7.82115 3.70833C8.94056 2.60833 10.4219 2 12.0042 2C13.5865 2 15.0594 2.60833 16.1789 3.70833C17.2983 4.81667 17.9043 6.28333 17.9043 7.84167V8.94167C19.0826 9.09167 20 10.0917 20 11.3083V19.6167C20 20.9333 18.9227 22 17.5928 22ZM6.40715 10.925C6.19674 10.925 6.01999 11.1 6.01999 11.3083V19.6167C6.01999 19.825 6.19674 20 6.40715 20H17.5928C17.8033 20 17.98 19.825 17.98 19.6167V11.3083C17.98 11.1 17.8033 10.925 17.5928 10.925H6.40715ZM8.11573 8.925H15.8843V7.85C15.8843 6.825 15.4803 5.85833 14.748 5.13333C14.0158 4.40833 13.0395 4.00833 12.0042 4.00833C10.969 4.00833 9.99264 4.40833 9.26039 5.13333C8.52814 5.85833 8.12415 6.825 8.12415 7.85V8.925H8.11573ZM11.9116 17.6667C10.8006 17.6667 9.89164 16.7667 9.89164 15.6667C9.89164 14.5667 10.8006 13.6667 11.9116 13.6667C13.0226 13.6667 13.9316 14.5667 13.9316 15.6667C13.9316 16.7667 13.0226 17.6667 11.9116 17.6667Z"/>
</svg>
