<svg viewBox="0 0 24 24" data-title="LoftCriteria" fill="currentColor" stroke="none">
  <path fill-rule="evenodd" clip-rule="evenodd" d="M19.2725 5C19.4795 5 19.6475 5.17127 19.6475 5.38231C19.6475 5.59334 19.4795 5.76462 19.2725 5.76462H19.229V17.2262H19.625C19.832 17.2262 20 17.3975 20 17.6085C20 17.8203 19.832 17.9908 19.625 17.9908H9.99725C9.98225 17.9931 9.96875 18 9.95375 18H7.85075C7.835 18 7.82225 17.9931 7.80725 17.9908H5.375C5.168 17.9908 5 17.8203 5 17.6085C5 17.3975 5.168 17.2262 5.375 17.2262H5.77175V5.76462H5.74775C5.54075 5.76462 5.37275 5.59334 5.37275 5.38231C5.37275 5.17127 5.54075 5 5.74775 5H19.2725ZM9.57875 14.1563H8.22575V17.227H9.57875V14.1563ZM18.479 5.76462H6.52175V17.2262H7.47575V13.774C7.47575 13.5622 7.643 13.3917 7.85075 13.3917H9.95375C10.1607 13.3917 10.3287 13.5622 10.3287 13.774V17.2262H18.479V5.76462ZM17.5685 13.3917C17.7755 13.3917 17.9435 13.5622 17.9435 13.774V16.0288C17.9435 16.2399 17.7755 16.4111 17.5685 16.4111H12.5285C12.3208 16.4111 12.1535 16.2399 12.1535 16.0288V13.774C12.1535 13.5622 12.3208 13.3917 12.5285 13.3917H17.5685ZM17.1935 14.1563H15.4415V15.6465H17.1935V14.1563ZM14.6915 14.1563H12.9035V15.6465H14.6915V14.1563ZM17.5685 6.47877C17.7755 6.47877 17.9435 6.64928 17.9435 6.86108V12.3686C17.9435 12.5796 17.7755 12.7509 17.5685 12.7509H7.41575C7.208 12.7509 7.04075 12.5796 7.04075 12.3686V6.86108C7.04075 6.64928 7.208 6.47877 7.41575 6.47877H17.5685ZM17.1935 9.99676H15.4415V11.9863H17.1935V9.99676ZM12.1535 9.99676H10.3287V11.9863H12.1535V9.99676ZM14.6915 9.99676H12.9035V11.9863H14.6915V9.99676ZM9.57875 9.99676H7.79075V11.9863H9.57875V9.99676ZM14.6915 7.24338H12.9035V9.23291H14.6915V7.24338ZM17.1935 7.24262H15.4415V9.23215H17.1935V7.24262ZM9.57875 7.24262H7.79075V9.23215H9.57875V7.24262ZM12.1535 7.24262H10.3287V9.23215H12.1535V7.24262Z"/>
</svg>
